<svg width="57" height="56" viewBox="0 0 57 56" fill="none" xmlns="http://www.w3.org/2000/svg">
<path d="M34.1 19V19.4H34.5H36.75C37.7717 19.4 38.6 20.2283 38.6 21.25V37.75C38.6 38.7717 37.7717 39.6 36.75 39.6H20.25C19.2283 39.6 18.4 38.7717 18.4 37.75V21.25C18.4 20.2283 19.2283 19.4 20.25 19.4H22.5H22.9V19V16.5625C22.9 16.4728 22.9728 16.4 23.0625 16.4H24.9375C25.0272 16.4 25.1 16.4728 25.1 16.5625V19V19.4H25.5H31.5H31.9V19V16.5625C31.9 16.4728 31.9728 16.4 32.0625 16.4H33.9375C34.0272 16.4 34.1 16.4728 34.1 16.5625V19ZM20.25 23.1H19.85V23.5V37.4688C19.85 37.6494 19.9218 37.8227 20.0495 37.9505C20.1773 38.0782 20.3506 38.15 20.5313 38.15H36.4688C36.6494 38.15 36.8227 38.0782 36.9505 37.9505C37.0782 37.8227 37.15 37.6494 37.15 37.4688V23.5V23.1H36.75H20.25ZM33.7098 28.0605L33.7098 28.0606L27.039 34.6779C26.9753 34.7411 26.8724 34.7406 26.8092 34.6769L23.2893 31.1286C23.2893 31.1286 23.2893 31.1286 23.2893 31.1286C23.2261 31.0648 23.2265 30.9619 23.2902 30.8987C23.2902 30.8987 23.2902 30.8987 23.2902 30.8987L24.3552 29.8423C24.4189 29.7791 24.5218 29.7796 24.5849 29.8433L24.5849 29.8433L26.6523 31.9274L26.934 32.2114L27.218 31.9297L32.4245 26.765C32.4245 26.765 32.4245 26.765 32.4245 26.7649C32.4882 26.7018 32.5911 26.7022 32.6543 26.7659C32.6543 26.7659 32.6544 26.7659 32.6544 26.7659L33.7107 27.8308C33.7739 27.8945 33.7735 27.9973 33.7098 28.0605Z" stroke="#FF014F" stroke-width="0.8"/>
</svg>
