<svg width="56" height="56" viewBox="0 0 56 56" fill="none" xmlns="http://www.w3.org/2000/svg">
<path d="M17.8246 34.265L17.8925 33.9913L17.6933 33.7916C15.8655 31.9586 14.7857 29.6489 14.7857 27.1429C14.7857 21.3557 20.5991 16.5 28 16.5C35.4009 16.5 41.2143 21.3557 41.2143 27.1429C41.2143 32.93 35.4009 37.7857 28 37.7857C26.0046 37.7857 24.1196 37.4168 22.4225 36.7784L22.1568 36.6785L21.9349 36.8554C20.6797 37.8554 18.187 39.4478 14.8772 39.4987C15.0871 39.262 15.543 38.7238 16.0426 37.9962C16.7047 37.0318 17.4691 35.6983 17.8246 34.265ZM14.7648 39.6224C14.7657 39.6215 14.7665 39.6206 14.7675 39.6196C14.7666 39.6205 14.7658 39.6215 14.7649 39.6224L14.7648 39.6224Z" stroke="#FF014F"/>
</svg>
