<svg width="56" height="56" viewBox="0 0 56 56" fill="none" xmlns="http://www.w3.org/2000/svg">
<path d="M14.172 18.4H14.4545L14.549 18.1337C14.9072 17.1238 15.8716 16.4 17 16.4H44.5C45.1075 16.4 45.6 16.8925 45.6 17.5V38.5C45.6 39.1075 45.1075 39.6 44.5 39.6H13.5C11.7879 39.6 10.4 38.2121 10.4 36.5V19.5C10.4 18.8925 10.8925 18.4 11.5 18.4H14.172ZM13 20.6H12.6V21V36.5C12.6 36.9966 13.0034 37.4 13.5 37.4C13.9966 37.4 14.4 36.9966 14.4 36.5V21V20.6H14H13ZM43 37.4H43.4V37V19V18.6H43H17H16.6V19V36.5C16.6 36.6497 16.5888 36.7976 16.5679 36.9433L16.5026 37.4H16.9639H43ZM22.5 24.1H22.1V24.5V27V27.4H22.5H27.5H27.9V27V24.5V24.1H27.5H22.5ZM29.25 29.1H20.75C20.5567 29.1 20.4 28.9433 20.4 28.75V22.75C20.4 22.5567 20.5567 22.4 20.75 22.4H29.25C29.4433 22.4 29.6 22.5567 29.6 22.75V28.75C29.6 28.9433 29.4433 29.1 29.25 29.1ZM20.4 33.25V31.75C20.4 31.5567 20.5567 31.4 20.75 31.4H29.25C29.4433 31.4 29.6 31.5567 29.6 31.75V33.25C29.6 33.4433 29.4433 33.6 29.25 33.6H20.75C20.5567 33.6 20.4 33.4433 20.4 33.25ZM32.4 33.25V31.75C32.4 31.5567 32.5567 31.4 32.75 31.4H39.25C39.4433 31.4 39.6 31.5567 39.6 31.75V33.25C39.6 33.4433 39.4433 33.6 39.25 33.6H32.75C32.5567 33.6 32.4 33.4433 32.4 33.25ZM32.4 24.25V22.75C32.4 22.5567 32.5567 22.4 32.75 22.4H39.25C39.4433 22.4 39.6 22.5567 39.6 22.75V24.25C39.6 24.4433 39.4433 24.6 39.25 24.6H32.75C32.5567 24.6 32.4 24.4433 32.4 24.25ZM32.4 28.75V27.25C32.4 27.0567 32.5567 26.9 32.75 26.9H39.25C39.4433 26.9 39.6 27.0567 39.6 27.25V28.75C39.6 28.9433 39.4433 29.1 39.25 29.1H32.75C32.5567 29.1 32.4 28.9433 32.4 28.75Z" stroke="#FF014F" stroke-width="0.8"/>
</svg>
