<svg width="56" height="56" viewBox="0 0 56 56" fill="none" xmlns="http://www.w3.org/2000/svg">
<path d="M16.5 27.818V18.25C16.5 17.2835 17.2835 16.5 18.25 16.5H27.818C28.2822 16.5 28.7273 16.6844 29.0555 17.0126L38.9874 26.9445C39.6709 27.628 39.6709 28.736 38.9874 29.4194L29.4194 38.9874C28.736 39.6709 27.628 39.6709 26.9445 38.9874L17.0126 29.0555C16.6844 28.7273 16.5 28.2822 16.5 27.818ZM21.25 18.5C19.7312 18.5 18.5 19.7312 18.5 21.25C18.5 22.7688 19.7312 24 21.25 24C22.7688 24 24 22.7688 24 21.25C24 19.7312 22.7688 18.5 21.25 18.5Z" stroke="#FF014F"/>
</svg>
