<svg width="56" height="56" viewBox="0 0 56 56" fill="none" xmlns="http://www.w3.org/2000/svg">
<path d="M40.2481 30.2666L40.2481 30.2667C39.8984 32.7403 38.7067 34.9417 36.9723 36.5757C36.8923 36.651 36.7348 36.6604 36.6285 36.5541L30.0744 30H39.9903C40.1586 30 40.2649 30.148 40.2481 30.2666ZM38.7495 26.4968L38.7495 26.4969C38.7576 26.6143 38.6497 26.7499 38.4894 26.7499H28.5001V16.7611C28.5001 16.6003 28.6361 16.4924 28.7531 16.5005L28.7532 16.5005C34.1039 16.8696 38.3804 21.1461 38.7495 26.4968ZM25.25 29.5V29.7071L25.3965 29.8535L32.7025 37.16L32.7025 37.16C32.8238 37.2813 32.7894 37.4592 32.6933 37.5273L32.6932 37.5274C30.9781 38.744 28.8931 39.471 26.6358 39.4992L26.6358 39.4992C20.8977 39.5712 15.9513 34.8595 15.7562 29.1253C15.5663 23.5373 19.6454 18.8735 24.9837 18.1191L24.984 18.1191C25.1018 18.1024 25.25 18.2084 25.25 18.3769V29.5Z" stroke="#FF014F"/>
</svg>
