<svg width="56" height="56" viewBox="0 0 56 56" fill="none" xmlns="http://www.w3.org/2000/svg">
<path d="M43.8702 19.8835L43.8703 19.8838C44.2119 21.1669 44.389 23.186 44.4782 24.9201C44.5224 25.7797 44.5446 26.5567 44.5556 27.1188C44.5612 27.3998 44.5639 27.6268 44.5653 27.7832C44.566 27.8615 44.5664 27.922 44.5665 27.9629L44.5667 28.0092L44.5667 28.0207L44.5667 28.0235V28.0241V28.0242L45.0667 28.0243L44.5667 28.0243V28.0244V28.025L44.5667 28.0278L44.5667 28.0393L44.5665 28.0856C44.5664 28.1265 44.566 28.187 44.5653 28.2653C44.5639 28.4217 44.5612 28.6487 44.5556 28.9297C44.5446 29.4918 44.5224 30.2688 44.4782 31.1284C44.389 32.8625 44.2119 34.8816 43.8703 36.1647L43.8702 36.165C43.5255 37.4628 42.5092 38.4487 41.2058 38.7993L41.2055 38.7994C40.5923 38.9647 39.4712 39.0973 38.0924 39.1985C36.7276 39.2987 35.1519 39.3657 33.6547 39.4105C32.1582 39.4552 30.7442 39.4776 29.704 39.4888C29.184 39.4944 28.7577 39.4972 28.4615 39.4986C28.3134 39.4993 28.1979 39.4997 28.1194 39.4998L28.0302 39.5L28.0075 39.5L28.0018 39.5H28.0004H28.0001L28 40L27.9999 39.5H27.9996H27.9982L27.9925 39.5L27.9698 39.5L27.8806 39.4998C27.8022 39.4997 27.6866 39.4993 27.5385 39.4986C27.2423 39.4972 26.816 39.4944 26.296 39.4888C25.2558 39.4776 23.8418 39.4552 22.3453 39.4105C20.8481 39.3657 19.2724 39.2987 17.9076 39.1985C16.5288 39.0973 15.4077 38.9647 14.7945 38.7994L14.7942 38.7993C13.4908 38.4487 12.4745 37.4628 12.1298 36.165L12.1297 36.1647C11.7882 34.8816 11.6111 32.8625 11.5218 31.1284C11.4776 30.2688 11.4554 29.4918 11.4444 28.9297C11.4388 28.6487 11.4361 28.4217 11.4347 28.2653C11.434 28.187 11.4337 28.1265 11.4335 28.0856L11.4333 28.0393L11.4333 28.0278L11.4333 28.025L11.4333 28.0244V28.0243L10.9333 28.0243L11.4333 28.0242V28.0241L11.4333 28.0235L11.4333 28.0207L11.4333 28.0092L11.4335 27.9629C11.4337 27.922 11.434 27.8615 11.4347 27.7832C11.4361 27.6268 11.4388 27.3998 11.4444 27.1188C11.4554 26.5567 11.4776 25.7797 11.5218 24.9201C11.6111 23.186 11.7882 21.1669 12.1297 19.8838L12.1298 19.8835C12.4768 18.5771 13.4996 17.549 14.7942 17.2007L14.7945 17.2006C15.4077 17.0353 16.5288 16.9027 17.9076 16.8015C19.2724 16.7013 20.8481 16.6343 22.3453 16.5895C23.8418 16.5448 25.2558 16.5224 26.296 16.5112C26.816 16.5056 27.2423 16.5028 27.5385 16.5014C27.6866 16.5007 27.8022 16.5003 27.8806 16.5002L27.9698 16.5L27.9925 16.5L27.9982 16.5L27.9996 16.5L27.9999 16.5L28 16L28.0001 16.5L28.0004 16.5L28.0018 16.5L28.0075 16.5L28.0302 16.5L28.1194 16.5002C28.1979 16.5003 28.3134 16.5007 28.4615 16.5014C28.7577 16.5028 29.184 16.5056 29.704 16.5112C30.7442 16.5224 32.1582 16.5448 33.6547 16.5895C35.152 16.6343 36.7277 16.7013 38.0924 16.8015C39.4713 16.9027 40.5923 17.0353 41.2055 17.2006L41.2058 17.2007C42.5004 17.549 43.5232 18.577 43.8702 19.8835ZM24.0091 33.0994V33.9591L24.7563 33.534L33.6775 28.459L34.4414 28.0244L33.6775 27.5898L24.7563 22.5145L24.0091 22.0894V22.9491V33.0994Z" stroke="#FF014F"/>
</svg>
